<?xml version="1.0" encoding="utf-8"?>
<!-- Generator: Adobe Illustrator 23.1.0, SVG Export Plug-In . SVG Version: 6.00 Build 0)  -->
<svg version="1.1" id="Ebene_1" xmlns="http://www.w3.org/2000/svg" xmlns:xlink="http://www.w3.org/1999/xlink" x="0px" y="0px"
	 viewBox="0 0 32 32" style="enable-background:new 0 0 32 32;" xml:space="preserve">
<style type="text/css">
	.st0{fill:#14B084;}
	.st1{fill:#FFFFFF;}
</style>
<rect class="st0" width="32" height="32"/>
<path class="st1" d="M20.41,29.37c-0.24,0-0.47-0.14-0.58-0.35l-5.72-10.79c-0.17-0.32-0.05-0.72,0.27-0.89
	c0.09-0.05,0.2-0.08,0.31-0.08h4.93c0.24,0,0.47,0.13,0.58,0.35l1.55,2.9c0.75-1.14,1.15-2.48,1.15-3.84V14.7
	c0-3.87-3.14-7.01-7.01-7.01s-7.01,3.14-7.01,7.01v1.97c0.01,2.74,1.61,5.22,4.09,6.37c0.13,0.06,0.24,0.16,0.31,0.29l2.66,5.06
	c0.17,0.32,0.05,0.72-0.27,0.89c-0.09,0.05-0.2,0.08-0.31,0.08h-0.03C8.54,29.08,3.18,23.48,3.2,16.67V14.7C3.2,7.69,8.88,2,15.89,2
	c7.01,0,12.7,5.69,12.7,12.7v1.97c0,3.5-1.45,6.84-4,9.24l1.31,2.5c0.17,0.32,0.05,0.72-0.27,0.89c-0.09,0.05-0.2,0.08-0.31,0.08
	L20.41,29.37L20.41,29.37z"/>
</svg>
