<?xml version="1.0" encoding="utf-8"?>
<!-- Generator: Adobe Illustrator 24.0.2, SVG Export Plug-In . SVG Version: 6.00 Build 0)  -->
<svg version="1.1" id="Ebene_1" xmlns="http://www.w3.org/2000/svg" xmlns:xlink="http://www.w3.org/1999/xlink" x="0px" y="0px"
	 viewBox="0 0 32 32" style="enable-background:new 0 0 32 32;" xml:space="preserve">
<style type="text/css">
	.st0{fill:#FFFFFF;}
</style>
<path class="st0" d="M20.4,29.4c-0.2,0-0.5-0.1-0.6-0.4l-5.7-10.8c-0.2-0.3-0.1-0.7,0.3-0.9c0.1,0,0.2-0.1,0.3-0.1h4.9
	c0.2,0,0.5,0.1,0.6,0.4l1.5,2.9c0.8-1.1,1.1-2.5,1.1-3.8v-2c0-3.9-3.1-7-7-7s-7,3.1-7,7v2c0,2.7,1.6,5.2,4.1,6.4
	c0.1,0.1,0.2,0.2,0.3,0.3l2.7,5.1c0.2,0.3,0.1,0.7-0.3,0.9c-0.1,0-0.2,0.1-0.3,0.1h0C8.5,29.1,3.2,23.5,3.2,16.7v-2
	C3.2,7.7,8.9,2,15.9,2s12.7,5.7,12.7,12.7v2c0,3.5-1.5,6.8-4,9.2l1.3,2.5c0.2,0.3,0,0.7-0.3,0.9c-0.1,0-0.2,0.1-0.3,0.1L20.4,29.4
	L20.4,29.4z"/>
</svg>
