<?xml version="1.0" encoding="utf-8"?>
<!-- Generator: Adobe Illustrator 15.0.2, SVG Export Plug-In . SVG Version: 6.00 Build 0)  -->
<!DOCTYPE svg PUBLIC "-//W3C//DTD SVG 1.1//EN" "http://www.w3.org/Graphics/SVG/1.1/DTD/svg11.dtd">
<svg version="1.1" xmlns="http://www.w3.org/2000/svg" xmlns:xlink="http://www.w3.org/1999/xlink" x="0px" y="0px"
	 width="2529.497px" height="590.599px" viewBox="448.818 1122.05 2529.497 590.599"
	 enable-background="new 448.818 1122.05 2529.497 590.599" xml:space="preserve">
<g id="Layer_1">
	<title>qreuzberg-black-rgb</title>
	<path fill="#FFFFFF" d="M2282.472,1712.6c-127.787-0.156-231.34-103.709-231.496-231.496v-344.881
		c0-7.828,6.346-14.174,14.173-14.174h94.488c7.828,0,14.174,6.346,14.174,14.174v344.881c0,60.013,48.648,108.662,108.661,108.662
		c60.012,0,108.661-48.649,108.661-108.662v-344.881c0-7.828,6.346-14.174,14.174-14.174h94.488c7.827,0,14.172,6.346,14.172,14.174
		v344.881C2513.811,1608.891,2410.258,1712.444,2282.472,1712.6z"/>
	<path fill="#FFFFFF" d="M1596.33,1712.6c-7.828,0-14.173-6.345-14.173-14.173v-562.204c0-7.828,6.345-14.174,14.173-14.174h387.401
		c7.827,0,14.173,6.346,14.173,14.174v94.487c0,7.828-6.346,14.174-14.173,14.174h-278.739v111.023h278.739
		c7.827,0,14.173,6.346,14.173,14.173v94.488c0,7.828-6.346,14.174-14.173,14.174h-278.739v111.023h278.739
		c7.827,0,14.173,6.346,14.173,14.173v94.488c0,7.828-6.346,14.173-14.173,14.173H1596.33z"/>
	<path fill="#FFFFFF" d="M820.252,1712.6c-5.252-0.006-10.069-2.914-12.52-7.559L684.33,1472.129
		c-3.652-6.924-1.002-15.497,5.922-19.149c2.033-1.073,4.298-1.636,6.598-1.639h106.3c5.241-0.003,10.056,2.886,12.52,7.512
		l33.496,62.646c16.212-24.613,24.853-53.44,24.851-82.914v-42.52c0-83.495-67.687-151.181-151.182-151.181
		s-151.181,67.686-151.181,151.181v42.52c0.169,59.107,34.645,112.738,88.347,137.434c2.836,1.308,5.162,3.517,6.613,6.283
		l57.496,109.229c3.653,6.923,1.002,15.496-5.921,19.149c-2.034,1.073-4.299,1.635-6.599,1.638h-0.614
		c-146.726-6.015-262.483-126.883-262.157-273.732v-42.52c0-151.335,122.682-274.016,274.016-274.016
		c151.335,0,274.016,122.681,274.016,274.016v42.52c-0.072,75.487-31.283,147.602-86.268,199.323l28.347,53.905
		c3.653,6.923,1.002,15.497-5.921,19.149c-2.049,1.081-4.33,1.644-6.646,1.638H820.252z"/>
	<path fill="#FFFFFF" d="M1408.819,1712.6c-5.252-0.006-10.069-2.914-12.52-7.559l-119.103-226.299h-114.142v219.685
		c0,7.828-6.346,14.173-14.174,14.173h-94.488c-7.827,0-14.173-6.345-14.173-14.173v-562.204c0-7.828,6.346-14.174,14.173-14.174
		h270.473c98.473-0.085,178.368,79.674,178.453,178.146c0.058,67.189-37.662,128.707-97.571,159.129l122.362,232.535
		c3.653,6.924,1.002,15.497-5.921,19.15c-2.034,1.073-4.299,1.635-6.599,1.638L1408.819,1712.6z M1324.865,1355.908
		c30.658,0,55.512-24.854,55.512-55.512s-24.854-55.512-55.512-55.512h-161.811v111.023H1324.865z"/>
	<path fill="#FFFFFF" d="M2964.141,1122.05h-383.764c-7.828,0-14.174,6.346-14.174,14.174v94.487
		c0,7.828,6.346,14.174,14.174,14.174h241.37l-252.851,347.669c-1.751,2.419-2.693,5.329-2.693,8.315v97.559
		c0,7.828,6.346,14.173,14.174,14.173h201.768v-122.834h-59.326l252.803-347.622c1.751-2.419,2.693-5.329,2.693-8.315v-97.605
		C2978.315,1128.395,2971.969,1122.05,2964.141,1122.05z"/>
	<path fill="#FFFFFF" d="M2869.653,1589.721h94.488c7.828,0,14.174,6.348,14.174,14.177v94.523c0,7.831-6.346,14.179-14.174,14.179
		h-94.488c-7.828,0-14.174-6.348-14.174-14.179v-94.523C2855.479,1596.069,2861.824,1589.721,2869.653,1589.721z"/>
	<path fill="#FFFFFF" d="M2698.653,1589.721h94.488c7.828,0,14.174,6.348,14.174,14.177v94.523c0,7.831-6.346,14.179-14.174,14.179
		h-94.488c-7.828,0-14.174-6.348-14.174-14.179v-94.523C2684.479,1596.069,2690.824,1589.721,2698.653,1589.721z"/>
</g>
<g id="Ebene_2">
</g>
</svg>
